SplineFontDB: 3.0
FontName: NyStormningKr
FullName: Ny Stormning Kursiv
FamilyName: Ny Stormning
Weight: Regular
Copyright: Copyright (c) 2016, Mew Too/Cannot Into Space Fonts, Robert Jablonski/Cannot Into Space Fonts, All Rights Reserved.
Version: 0.90
ItalicAngle: 0
UnderlinePosition: -100
UnderlineWidth: 50
Ascent: 800
Descent: 200
InvalidEm: 0
sfntRevision: 0x0000e666
LayerCount: 2
Layer: 0 0 "Back" 1
Layer: 1 0 "Fore" 0
XUID: [1021 908 -2008021153 9976829]
StyleMap: 0x0000
FSType: 0
OS2Version: 4
OS2_WeightWidthSlopeOnly: 0
OS2_UseTypoMetrics: 1
CreationTime: 1422214609
ModificationTime: 1452319395
PfmFamily: 33
TTFWeight: 400
TTFWidth: 5
LineGap: 90
VLineGap: 0
Panose: 2 0 5 3 0 0 0 0 0 0
OS2TypoAscent: 800
OS2TypoAOffset: 0
OS2TypoDescent: -200
OS2TypoDOffset: 0
OS2TypoLinegap: 90
OS2WinAscent: 904
OS2WinAOffset: 0
OS2WinDescent: 1
OS2WinDOffset: 0
HheadAscent: 904
HheadAOffset: 0
HheadDescent: -1
HheadDOffset: 0
OS2SubXSize: 650
OS2SubYSize: 699
OS2SubXOff: 0
OS2SubYOff: 140
OS2SupXSize: 650
OS2SupYSize: 699
OS2SupXOff: 0
OS2SupYOff: 479
OS2StrikeYSize: 49
OS2StrikeYPos: 258
OS2CapHeight: 860
OS2XHeight: 860
OS2FamilyClass: 2048
OS2Vendor: 'CiSf'
OS2CodePages: 00000001.00000000
OS2UnicodeRanges: 00000007.00000000.00000000.00000000
Lookup: 258 0 0 "'kern' Horizontal Kerning in Latin lookup 0" { "'kern' Horizontal Kerning in Latin lookup 0-1" [100,10,2] } ['kern' ('DFLT' <'dflt' > 'latn' <'dflt' > ) ]
MarkAttachClasses: 1
DEI: 91125

StartChar: .notdef
Encoding: 65536 -1 0
Width: 445
Flags: W
HStem: 0 50<74 374> 483 50<127 427>
LayerCount: 2
Fore
SplineSet
74 50 m 1
 374 50 l 1
 427 483 l 1
 127 483 l 1
 74 50 l 1
18 0 m 1
 83 533 l 1
 483 533 l 1
 418 0 l 1
 18 0 l 1
EndSplineSet
EndChar

StartChar: comma
Encoding: 44 44 2
Width: 210
Flags: W
HStem: 314 176<103.658 196.95>
VStem: 65 170<353.062 452.681>
LayerCount: 2
Fore
SplineSet
65 402 m 0
 71 450 114 490 160 490 c 0
 206 490 241 450 235 402 c 0
 229 354 185 314 139 314 c 0
 93 314 59 354 65 402 c 0
EndSplineSet
EndChar

StartChar: period
Encoding: 46 46 3
Width: 212
Flags: W
HStem: 166 177<87.7881 179.342> 425 177<119.658 211.212>
VStem: 48 203
LayerCount: 2
Fore
SplineSet
48 254 m 0
 54 302 98 343 144 343 c 0
 190 343 224 302 218 254 c 0
 212 206 168 166 122 166 c 0
 76 166 42 206 48 254 c 0
81 514 m 0
 87 562 131 602 177 602 c 0
 223 602 257 562 251 514 c 0
 245 466 201 425 155 425 c 0
 109 425 75 466 81 514 c 0
EndSplineSet
EndChar

StartChar: zero
Encoding: 48 48 4
Width: 832
Flags: W
HStem: 0 21G<342 490.439> 369 121<302.895 387 548 624.248> 807 20G<345.5 685.5>
LayerCount: 2
Fore
SplineSet
548 490 m 1
 644 496 744 536 752 601 c 1
 755 659 711 681 575 707 c 1
 548 490 l 1
488 0 m 1
 342 0 l 1
 387 369 l 1
 229 387 83 512 92 601 c 1
 109 695 247 819 444 827 c 1
 588 827 l 1
 783 819 893 695 886 601 c 1
 873 512 694 387 533 369 c 1
 488 0 l 1
402 490 m 1
 429 707 l 1
 287 681 237 659 226 601 c 1
 218 536 308 496 402 490 c 1
EndSplineSet
EndChar

StartChar: one
Encoding: 49 49 5
Width: 426
Flags: W
HStem: 0 21G<23 162.461> 764 96<254 499>
LayerCount: 2
Fore
SplineSet
160 0 m 1
 23 0 l 1
 129 860 l 1
 511 860 l 1
 499 764 l 1
 254 764 l 1
 160 0 l 1
EndSplineSet
EndChar

StartChar: two
Encoding: 50 50 6
Width: 429
Flags: W
HStem: 0 21G<23 162.456> 619 97<248 482> 764 96<254 500>
LayerCount: 2
Fore
SplineSet
23 0 m 1
 129 860 l 1
 512 860 l 1
 500 764 l 1
 254 764 l 1
 248 716 l 1
 494 716 l 1
 482 619 l 1
 236 619 l 1
 160 0 l 1
 23 0 l 1
EndSplineSet
EndChar

StartChar: three
Encoding: 51 51 7
Width: 430
Flags: W
HStem: 0 21G<23 162.437> 476 97<230 463> 619 97<248 481> 764 96<254 499>
LayerCount: 2
Fore
SplineSet
23 0 m 1
 129 860 l 1
 511 860 l 1
 499 764 l 1
 254 764 l 1
 248 716 l 1
 493 716 l 1
 481 619 l 1
 236 619 l 1
 230 573 l 1
 475 573 l 1
 463 476 l 1
 218 476 l 1
 160 0 l 1
 23 0 l 1
EndSplineSet
EndChar

StartChar: four
Encoding: 52 52 8
Width: 432
Flags: W
HStem: 0 21G<23 162.44> 336 97<213 446> 476 97<230 463> 619 97<248 481> 764 96<254 499>
LayerCount: 2
Fore
SplineSet
23 0 m 1
 129 860 l 1
 511 860 l 1
 499 764 l 1
 254 764 l 1
 248 716 l 1
 493 716 l 1
 481 619 l 1
 236 619 l 1
 230 573 l 1
 475 573 l 1
 463 476 l 1
 218 476 l 1
 213 433 l 1
 458 433 l 1
 446 336 l 1
 201 336 l 1
 160 0 l 1
 23 0 l 1
EndSplineSet
EndChar

StartChar: five
Encoding: 53 53 9
Width: 513
Flags: W
HStem: 0 21G<23 171.439> 369 121<228 305.248> 807 20G<123.509 367.5>
LayerCount: 2
Fore
SplineSet
228 490 m 1
 324 496 425 536 433 601 c 1
 436 659 391 681 255 707 c 1
 228 490 l 1
126 827 m 1
 270 827 l 1
 465 819 574 695 567 601 c 1
 554 512 375 387 214 369 c 1
 169 0 l 1
 23 0 l 1
 126 827 l 1
EndSplineSet
EndChar

StartChar: six
Encoding: 54 54 10
Width: 513
Flags: W
HStem: 0 21G<23 171.444> 311 59<214 387> 807 20G<123.509 367.5>
LayerCount: 2
Fore
SplineSet
126 827 m 1
 270 827 l 1
 465 819 574 695 567 601 c 1
 554 512 375 388 214 370 c 1
 394 370 l 1
 387 311 l 1
 207 311 l 1
 169 0 l 1
 23 0 l 1
 126 827 l 1
228 490 m 1
 324 496 425 536 433 601 c 1
 436 659 391 681 255 707 c 1
 228 490 l 1
EndSplineSet
EndChar

StartChar: seven
Encoding: 55 55 11
Width: 512
Flags: W
HStem: 0 21G<23 171.422> 223 59<204 376> 311 59<214 387> 807 20G<123.509 367.5>
LayerCount: 2
Fore
SplineSet
126 827 m 1
 270 827 l 1
 465 819 574 695 567 601 c 1
 554 512 375 388 214 370 c 1
 394 370 l 1
 387 311 l 1
 207 311 l 1
 204 282 l 1
 384 282 l 1
 376 223 l 1
 196 223 l 1
 169 0 l 1
 23 0 l 1
 126 827 l 1
228 490 m 1
 324 496 425 536 433 601 c 1
 436 659 391 681 255 707 c 1
 228 490 l 1
EndSplineSet
EndChar

StartChar: eight
Encoding: 56 56 12
Width: 512
Flags: W
HStem: 0 21G<23 171.519> 135 59<193 366> 223 59<204 376> 311 59<214 387> 807 20G<123.509 367.5>
LayerCount: 2
Fore
SplineSet
126 827 m 1
 270 827 l 1
 465 819 574 695 567 601 c 1
 554 512 375 388 214 370 c 1
 394 370 l 1
 387 311 l 1
 207 311 l 1
 204 282 l 1
 384 282 l 1
 376 223 l 1
 196 223 l 1
 193 194 l 1
 373 194 l 1
 366 135 l 1
 186 135 l 1
 169 0 l 1
 23 0 l 1
 126 827 l 1
228 490 m 1
 324 496 425 536 433 601 c 1
 436 659 391 681 255 707 c 1
 228 490 l 1
EndSplineSet
EndChar

StartChar: nine
Encoding: 57 57 13
Width: 512
Flags: W
HStem: 0 21G<23 171.553> 47 59<182 355> 135 59<193 366> 223 59<204 376> 311 59<214 387> 807 20G<123.509 367.5>
LayerCount: 2
Fore
SplineSet
126 827 m 1
 270 827 l 1
 465 819 574 695 567 601 c 1
 554 512 375 388 214 370 c 1
 394 370 l 1
 387 311 l 1
 207 311 l 1
 204 282 l 1
 384 282 l 1
 376 223 l 1
 196 223 l 1
 193 194 l 1
 373 194 l 1
 366 135 l 1
 186 135 l 1
 182 106 l 1
 362 106 l 1
 355 47 l 1
 175 47 l 1
 169 0 l 1
 23 0 l 1
 126 827 l 1
228 490 m 1
 324 496 425 536 433 601 c 1
 436 659 391 681 255 707 c 1
 228 490 l 1
EndSplineSet
EndChar

StartChar: colon
Encoding: 58 58 14
Width: 745
Flags: W
HStem: 1 21G<200.486 276 462 540.375>
LayerCount: 2
Fore
SplineSet
462 2 m 1
 276 2 l 1
 190 1 l 1
 341 289 l 1
 39 173 l 1
 50 259 l 1
 73 444 l 1
 83 530 l 1
 357 414 l 1
 276 702 l 1
 362 701 l 1
 546 701 l 1
 632 702 l 1
 481 414 l 1
 783 530 l 1
 773 444 l 1
 750 259 l 1
 739 173 l 1
 465 289 l 1
 546 1 l 1
 462 2 l 1
EndSplineSet
EndChar

StartChar: at
Encoding: 64 64 15
Width: 847
Flags: W
HStem: 0 21G<23 162.452 497 636.444> 840 20G<126.535 340.118>
LayerCount: 2
Fore
SplineSet
634 0 m 1
 497 0 l 1
 589 753 l 1
 414 679 l 1
 408 712 l 1
 253 755 l 1
 243 674 l 1
 386 636 l 1
 343 539 l 1
 230 571 l 1
 160 0 l 1
 23 0 l 1
 129 860 l 1
 266 860 l 1
 455 809 l 1
 453 803 l 1
 681 904 l 1
 926 778 l 1
 884 679 l 1
 726 753 l 1
 634 0 l 1
EndSplineSet
EndChar

StartChar: A
Encoding: 65 65 16
Width: 373
Flags: W
HStem: 0 21G<22 156.452> 840 20G<125.535 335.686>
LayerCount: 2
Fore
SplineSet
128 860 m 1
 260 860 l 1
 453 809 l 1
 412 710 l 1
 247 755 l 1
 237 674 l 1
 385 636 l 1
 342 539 l 1
 224 571 l 1
 154 0 l 1
 22 0 l 1
 128 860 l 1
EndSplineSet
EndChar

StartChar: B
Encoding: 66 66 17
Width: 537
Flags: W
HStem: 0 21G<22 184.345> 807 20G<121.533 281.364>
LayerCount: 2
Fore
SplineSet
390 261 m 1
 203 397 l 1
 169 120 l 1
 390 261 l 1
207 430 m 1
 427 566 l 1
 241 707 l 1
 207 430 l 1
154 0 m 1
 22 0 l 1
 124 827 l 1
 256 827 l 1
 587 566 l 1
 345 414 l 1
 550 261 l 1
 154 0 l 1
EndSplineSet
EndChar

StartChar: C
Encoding: 67 67 18
Width: 346
Flags: W
HStem: 820 20G<406.683 421.447>
LayerCount: 2
Fore
SplineSet
69 430 m 1
 424 840 l 1
 400 652 l 1
 214 430 l 1
 346 208 l 1
 323 20 l 1
 69 430 l 1
EndSplineSet
EndChar

StartChar: D
Encoding: 68 68 19
Width: 666
Flags: W
HStem: 0 21G<22 167.876 496.01 640.465> 840 20G<125.535 268.925 597.059 744>
LayerCount: 2
Fore
SplineSet
602 645 m 1
 451 430 l 1
 549 215 l 1
 602 645 l 1
163 215 m 1
 314 430 l 1
 216 645 l 1
 163 215 l 1
22 0 m 1
 128 860 l 1
 260 860 l 1
 397 553 l 1
 611 860 l 1
 744 860 l 1
 638 0 l 1
 505 0 l 1
 367 307 l 1
 154 0 l 1
 22 0 l 1
EndSplineSet
EndChar

StartChar: E
Encoding: 69 69 20
Width: 715
Flags: W
HStem: 0 21G<22 156.454 555 689.458>
LayerCount: 2
Fore
SplineSet
642 709 m 1
 425 577 l 1
 241 709 l 1
 154 0 l 1
 22 0 l 1
 133 903 l 1
 193 904 l 1
 441 697 l 1
 738 904 l 1
 798 903 l 1
 687 0 l 1
 555 0 l 1
 642 709 l 1
EndSplineSet
EndChar

StartChar: F
Encoding: 70 70 21
Width: 525
Flags: W
HStem: 0 21G<22 156.415> 841 20G<125.535 260 442.091 611>
LayerCount: 2
Fore
SplineSet
22 1 m 1
 128 861 l 1
 260 861 l 1
 233 641 l 1
 463 861 l 1
 611 861 l 1
 211 463 l 1
 201 384 l 1
 432 598 l 1
 580 598 l 1
 179 207 l 1
 154 0 l 1
 22 1 l 1
EndSplineSet
EndChar

StartChar: G
Encoding: 71 71 22
Width: 625
Flags: W
HStem: 0 21G<22 156.458> 742 106<355.066 429.212> 840 20G<125.535 260 566.5 712>
VStem: 341 103<756.733 834.137>
LayerCount: 2
Fore
SplineSet
219 528 m 1xb0
 338 570 531 710 602 860 c 1
 712 860 l 1
 646 679 384 478 205 415 c 1
 154 0 l 1
 22 0 l 1
 128 860 l 1
 260 860 l 1
 219 528 l 1xb0
341 795 m 0
 345 824 370 848 398 848 c 0
 426 848 448 824 444 795 c 0
 440 766 413 742 385 742 c 0xd0
 357 742 337 766 341 795 c 0
EndSplineSet
EndChar

StartChar: H
Encoding: 72 72 23
Width: 627
Flags: W
HStem: 0 21G<22 156.47 467 601.465> 840 20G<125.535 260 570.536 705>
LayerCount: 2
Fore
SplineSet
22 0 m 1
 128 860 l 1
 260 860 l 1
 219 527 l 1
 522 446 l 1
 573 860 l 1
 705 860 l 1
 599 0 l 1
 467 0 l 1
 509 340 l 1
 206 421 l 1
 154 0 l 1
 22 0 l 1
EndSplineSet
EndChar

StartChar: I
Encoding: 73 73 24
Width: 182
Flags: W
HStem: 0 21G<22 156.465> 840 20G<125.535 260>
VStem: 22 238
LayerCount: 2
Fore
SplineSet
22 0 m 1
 128 860 l 1
 260 860 l 1
 154 0 l 1
 22 0 l 1
EndSplineSet
EndChar

StartChar: J
Encoding: 74 74 25
Width: 578
Flags: W
HStem: 0 21G<310.46 326.418> 835 20G<354.524 370.54>
LayerCount: 2
Fore
SplineSet
308 0 m 1
 331 187 l 1
 457 316 l 1
 363 444 l 1
 385 631 l 1
 599 316 l 1
 308 0 l 1
296 224 m 1
 82 540 l 1
 373 855 l 1
 350 668 l 1
 224 540 l 1
 318 411 l 1
 296 224 l 1
EndSplineSet
EndChar

StartChar: K
Encoding: 75 75 26
Width: 486
Flags: W
HStem: 0 21G<22 156.474> 841 20G<125.535 260 408.878 575>
LayerCount: 2
Fore
SplineSet
22 1 m 1
 128 861 l 1
 260 861 l 1
 234 648 l 1
 427 861 l 1
 575 861 l 1
 214 485 l 1
 154 0 l 1
 22 1 l 1
EndSplineSet
EndChar

StartChar: L
Encoding: 76 76 27
Width: 368
Flags: W
HStem: 0 21G<22 154.462>
LayerCount: 2
Fore
SplineSet
22 0 m 1
 133 903 l 1
 439 740 l 1
 397 641 l 1
 240 715 l 1
 152 0 l 1
 22 0 l 1
EndSplineSet
EndChar

StartChar: M
Encoding: 77 77 28
Width: 715
Flags: W
HStem: 0 21G<22 155.512 555 689.458>
LayerCount: 2
Fore
SplineSet
354 630 m 1
 240 709 l 1
 218 528 l 1
 354 630 l 1
620 528 m 1
 642 709 l 1
 509 629 l 1
 620 528 l 1
555 0 m 1
 607 423 l 1
 426 577 l 1
 206 422 l 1
 153 0 l 1
 22 0 l 1
 133 903 l 1
 193 904 l 1
 441 697 l 1
 738 904 l 1
 798 903 l 1
 687 0 l 1
 555 0 l 1
EndSplineSet
EndChar

StartChar: N
Encoding: 78 78 29
Width: 549
Flags: W
HStem: 0 21G<202 336.438> 840 20G<305.539 440>
LayerCount: 2
Fore
SplineSet
383 402 m 1
 334 0 l 1
 202 0 l 1
 256 436 l 1
 76 485 l 1
 114 585 l 1
 269 543 l 1
 308 860 l 1
 440 860 l 1
 396 509 l 1
 586 457 l 1
 560 354 l 1
 383 402 l 1
EndSplineSet
EndChar

StartChar: O
Encoding: 79 79 30
Width: 375
Flags: W
HStem: 0 21G<22 156.474> 840 20G<125.535 260>
LayerCount: 2
Fore
SplineSet
22 0 m 1
 128 860 l 1
 260 860 l 1
 224 571 l 1
 392 615 l 1
 405 516 l 1
 211 466 l 1
 203 397 l 1
 384 444 l 1
 397 345 l 1
 190 291 l 1
 154 0 l 1
 22 0 l 1
EndSplineSet
EndChar

StartChar: P
Encoding: 80 80 31
Width: 377
Flags: W
HStem: 0 21G<23 127.714>
LayerCount: 2
Fore
SplineSet
22 0 m 1
 133 904 l 1
 134 903 l 1
 193 904 l 1
 451 778 l 1
 409 679 l 1
 246 751 l 1
 173 153 l 1
 354 225 l 1
 370 126 l 1
 82 0 l 1
 23 1 l 1
 22 0 l 1
EndSplineSet
EndChar

StartChar: Q
Encoding: 81 81 32
Width: 433
Flags: W
HStem: 0 21G<273 407.465> 840 20G<376.479 511>
LayerCount: 2
Fore
SplineSet
364 741 m 1
 379 860 l 1
 511 860 l 1
 405 0 l 1
 273 0 l 1
 288 119 l 1
 69 430 l 1
 364 741 l 1
345 588 m 1
 190 430 l 1
 306 272 l 1
 345 588 l 1
EndSplineSet
EndChar

StartChar: R
Encoding: 82 82 33
Width: 600
Flags: W
HStem: 0 21G<22 156.461 437.412 584> 805 20G<120.552 280.236>
LayerCount: 2
Fore
SplineSet
584 0 m 1
 446 0 l 1
 300 340 l 1
 314 455 l 1
 442 550 l 1
 241 707 l 1
 154 0 l 1
 22 0 l 1
 123 825 l 1
 255 825 l 1
 602 550 l 1
 405 413 l 1
 584 0 l 1
EndSplineSet
EndChar

StartChar: S
Encoding: 83 83 34
Width: 538
Flags: W
HStem: 0 21G<373 512.472> 776 20G<117.528 256>
LayerCount: 2
Fore
SplineSet
120 796 m 1
 256 796 l 1
 208 407 l 1
 312 449 412 497 513 543 c 1
 577 542 l 1
 510 0 l 1
 373 0 l 1
 421 390 l 1
 317 348 218 299 117 253 c 1
 53 254 l 1
 120 796 l 1
EndSplineSet
EndChar

StartChar: T
Encoding: 84 84 35
Width: 558
Flags: W
HStem: 0 21G<212 344.458>
LayerCount: 2
Fore
SplineSet
342 0 m 1
 212 0 l 1
 300 716 l 1
 125 642 l 1
 107 741 l 1
 389 904 l 1
 629 741 l 1
 587 642 l 1
 430 716 l 1
 342 0 l 1
EndSplineSet
EndChar

StartChar: U
Encoding: 85 85 36
Width: 616
Flags: W
HStem: 0 21G<22 156.466 454.061 599> 840 20G<125.535 267.884>
LayerCount: 2
Fore
SplineSet
260 860 m 1
 599 0 l 1
 462 0 l 1
 227 592 l 1
 154 0 l 1
 22 0 l 1
 128 860 l 1
 260 860 l 1
EndSplineSet
EndChar

StartChar: V
Encoding: 86 86 37
Width: 525
Flags: W
HStem: 0 21G<22 156.415> 781 79<303.073 363.888>
VStem: 296 74<786.284 853.427>
LayerCount: 2
Fore
SplineSet
22 1 m 1
 128 861 l 1
 260 861 l 1
 233 641 l 1
 463 861 l 1
 611 861 l 1
 211 463 l 1
 201 384 l 1
 432 598 l 1
 580 598 l 1
 179 207 l 1
 154 0 l 1
 22 1 l 1
296 820 m 0
 299 841 318 860 339 860 c 0
 360 860 373 841 370 820 c 0
 367 799 350 781 329 781 c 0
 308 781 293 799 296 820 c 0
EndSplineSet
EndChar

StartChar: W
Encoding: 87 87 38
Width: 521
Flags: W
HStem: 0 21G<22 156.442> 807 20G<123 280.291>
LayerCount: 2
Fore
SplineSet
206 427 m 1
 427 566 l 1
 240 703 l 1
 206 427 l 1
256 827 m 1
 573 566 l 1
 191 303 l 1
 154 0 l 1
 22 0 l 1
 123 825 l 1
 256 827 l 1
EndSplineSet
EndChar

StartChar: X
Encoding: 88 88 39
Width: 795
Flags: W
HStem: 0 21G<372 512.472> 796 69G<117.528 256 738.518 877>
LayerCount: 2
Fore
SplineSet
688 458 m 1
 741 885 l 1
 877 885 l 1
 824 458 l 1
 688 458 l 1
120 796 m 1
 256 796 l 1
 208 407 l 1
 312 449 412 497 513 543 c 1
 577 542 l 1
 510 0 l 1
 372 0 l 1
 420 390 l 1
 316 348 218 299 117 253 c 1
 53 254 l 1
 120 796 l 1
EndSplineSet
EndChar

StartChar: Y
Encoding: 89 89 40
Width: 616
Flags: W
HStem: 0 21G<22 156.466 454.061 599> 182 107<233.066 306.309> 840 20G<125.535 267.884>
VStem: 219 103<197.21 275.137>
LayerCount: 2
Fore
SplineSet
260 860 m 1
 599 0 l 1
 462 0 l 1
 227 592 l 1
 154 0 l 1
 22 0 l 1
 128 860 l 1
 260 860 l 1
219 236 m 0
 223 265 248 289 276 289 c 0
 304 289 326 265 322 236 c 0
 318 207 291 182 263 182 c 0
 235 182 215 207 219 236 c 0
EndSplineSet
EndChar

StartChar: Z
Encoding: 90 90 41
Width: 560
Flags: W
HStem: 865 20G<319.518 452>
LayerCount: 2
Fore
SplineSet
322 885 m 1
 452 885 l 1
 399 458 l 1
 574 532 l 1
 592 433 l 1
 311 270 l 1
 70 433 l 1
 112 532 l 1
 269 458 l 1
 322 885 l 1
EndSplineSet
EndChar

StartChar: a
Encoding: 97 97 42
Width: 373
Flags: W
HStem: 0 21G<22 156.452> 840 20G<125.535 335.686>
LayerCount: 2
Fore
SplineSet
128 860 m 1
 260 860 l 1
 453 809 l 1
 412 710 l 1
 247 755 l 1
 237 674 l 1
 385 636 l 1
 342 539 l 1
 224 571 l 1
 154 0 l 1
 22 0 l 1
 128 860 l 1
EndSplineSet
EndChar

StartChar: b
Encoding: 98 98 43
Width: 368
Flags: W
HStem: 0 21G<22 156.436> 840 20G<125.535 260>
LayerCount: 2
Fore
SplineSet
128 860 m 1
 260 860 l 1
 228 601 l 1
 349 633 l 1
 368 536 l 1
 215 498 l 1
 205 417 l 1
 381 462 l 1
 394 364 l 1
 192 312 l 1
 154 0 l 1
 22 0 l 1
 128 860 l 1
EndSplineSet
EndChar

StartChar: c
Encoding: 99 99 44
Width: 370
Flags: W
HStem: 865 20G<128.528 261>
LayerCount: 2
Fore
SplineSet
131 885 m 1
 261 885 l 1
 208 458 l 1
 383 532 l 1
 401 433 l 1
 55 270 l 1
 131 885 l 1
EndSplineSet
EndChar

StartChar: d
Encoding: 100 100 45
Width: 386
Flags: W
HStem: 0 21G<212 344.435>
LayerCount: 2
Fore
SplineSet
342 0 m 1
 212 0 l 1
 255 349 l 1
 245 364 241 383 243 403 c 0
 245 423 254 442 268 457 c 1
 300 715 l 1
 125 641 l 1
 107 740 l 1
 453 903 l 1
 399 461 l 1
 410 445 416 425 413 403 c 0
 410 381 399 361 384 345 c 1
 342 0 l 1
EndSplineSet
EndChar

StartChar: e
Encoding: 101 101 46
Width: 715
Flags: W
HStem: 0 21G<22 156.454 555 689.458>
LayerCount: 2
Fore
SplineSet
642 709 m 1
 425 577 l 1
 241 709 l 1
 154 0 l 1
 22 0 l 1
 133 903 l 1
 193 904 l 1
 441 697 l 1
 738 904 l 1
 798 903 l 1
 687 0 l 1
 555 0 l 1
 642 709 l 1
EndSplineSet
EndChar

StartChar: f
Encoding: 102 102 47
Width: 525
Flags: W
HStem: 0 21G<22 156.415> 841 20G<125.535 260 442.091 611>
LayerCount: 2
Fore
SplineSet
22 1 m 1
 128 861 l 1
 260 861 l 1
 233 641 l 1
 463 861 l 1
 611 861 l 1
 211 463 l 1
 201 384 l 1
 432 598 l 1
 580 598 l 1
 179 207 l 1
 154 0 l 1
 22 1 l 1
EndSplineSet
EndChar

StartChar: g
Encoding: 103 103 48
Width: 650
Flags: W
HStem: 0 21G<16 166.55 485.336 631> 840 20G<122 267.599 586.384 737>
LayerCount: 2
Fore
SplineSet
631 0 m 1
 494 0 l 1
 361 307 l 1
 153 0 l 1
 16 0 l 1
 308 430 l 1
 122 860 l 1
 259 860 l 1
 391 553 l 1
 600 860 l 1
 737 860 l 1
 445 430 l 1
 631 0 l 1
EndSplineSet
EndChar

StartChar: h
Encoding: 104 104 49
Width: 511
Flags: W
HStem: 0 21G<187 321.446> 368 124<79 232 379 531> 840 20G<290.5 425>
LayerCount: 2
Fore
SplineSet
293 860 m 1
 425 860 l 1
 379 492 l 1
 546 492 l 1
 531 368 l 1
 364 368 l 1
 319 0 l 1
 187 0 l 1
 232 368 l 1
 64 368 l 1
 79 492 l 1
 247 492 l 1
 293 860 l 1
EndSplineSet
EndChar

StartChar: i
Encoding: 105 105 50
Width: 182
Flags: W
HStem: 0 21G<22 156.465> 840 20G<125.535 260>
VStem: 22 238
LayerCount: 2
Fore
SplineSet
22 0 m 1
 128 860 l 1
 260 860 l 1
 154 0 l 1
 22 0 l 1
EndSplineSet
EndChar

StartChar: j
Encoding: 106 106 51
Width: 578
Flags: W
HStem: 0 21G<310.46 326.418> 835 20G<354.524 370.54>
LayerCount: 2
Fore
SplineSet
308 0 m 1
 331 187 l 1
 457 316 l 1
 363 444 l 1
 385 631 l 1
 599 316 l 1
 308 0 l 1
296 224 m 1
 82 540 l 1
 373 855 l 1
 350 668 l 1
 224 540 l 1
 318 411 l 1
 296 224 l 1
EndSplineSet
EndChar

StartChar: k
Encoding: 107 107 52
Width: 486
Flags: W
HStem: 0 21G<22 156.474> 841 20G<125.535 260 408.878 575>
LayerCount: 2
Fore
SplineSet
22 1 m 1
 128 861 l 1
 260 861 l 1
 234 648 l 1
 427 861 l 1
 575 861 l 1
 214 485 l 1
 154 0 l 1
 22 1 l 1
EndSplineSet
EndChar

StartChar: l
Encoding: 108 108 53
Width: 368
Flags: W
HStem: 0 21G<22 154.462>
LayerCount: 2
Fore
SplineSet
22 0 m 1
 133 903 l 1
 439 740 l 1
 397 641 l 1
 240 715 l 1
 152 0 l 1
 22 0 l 1
EndSplineSet
EndChar

StartChar: m
Encoding: 109 109 54
Width: 715
Flags: W
HStem: 0 21G<22 155.512 555 689.458>
LayerCount: 2
Fore
SplineSet
354 630 m 1
 240 709 l 1
 218 528 l 1
 354 630 l 1
620 528 m 1
 642 709 l 1
 509 629 l 1
 620 528 l 1
555 0 m 1
 607 423 l 1
 426 577 l 1
 206 422 l 1
 153 0 l 1
 22 0 l 1
 133 903 l 1
 193 904 l 1
 441 697 l 1
 738 904 l 1
 798 903 l 1
 687 0 l 1
 555 0 l 1
EndSplineSet
EndChar

StartChar: n
Encoding: 110 110 55
Width: 368
Flags: W
HStem: 0 21G<22 156.456> 840 20G<125.535 260>
LayerCount: 2
Fore
SplineSet
22 0 m 1
 128 860 l 1
 260 860 l 1
 216 504 l 1
 405 453 l 1
 369 354 l 1
 203 399 l 1
 154 0 l 1
 22 0 l 1
EndSplineSet
EndChar

StartChar: o
Encoding: 111 111 56
Width: 542
Flags: W
HStem: 0 21G<16 174.308 365.426 522> 740 20G<344.519 376.544>
LayerCount: 2
Fore
SplineSet
340 573 m 1
 213 444 l 1
 309 316 l 1
 435 444 l 1
 340 573 l 1
363 760 m 1
 577 444 l 1
 371 222 l 1
 522 0 l 1
 380 0 l 1
 286 129 l 1
 154 -1 l 1
 16 0 l 1
 221 222 l 1
 71 444 l 1
 363 760 l 1
EndSplineSet
EndChar

StartChar: p
Encoding: 112 112 57
Width: 377
Flags: W
HStem: 0 21G<23 127.714>
LayerCount: 2
Fore
SplineSet
22 0 m 1
 133 904 l 1
 134 903 l 1
 193 904 l 1
 451 778 l 1
 409 679 l 1
 246 751 l 1
 173 153 l 1
 354 225 l 1
 370 126 l 1
 82 0 l 1
 23 1 l 1
 22 0 l 1
EndSplineSet
EndChar

StartChar: q
Encoding: 113 113 58
Width: 433
Flags: W
HStem: 0 21G<273 407.465> 840 20G<376.479 511>
LayerCount: 2
Fore
SplineSet
364 741 m 1
 379 860 l 1
 511 860 l 1
 405 0 l 1
 273 0 l 1
 288 119 l 1
 69 430 l 1
 364 741 l 1
345 588 m 1
 190 430 l 1
 306 272 l 1
 345 588 l 1
EndSplineSet
EndChar

StartChar: r
Encoding: 114 114 59
Width: 600
Flags: W
HStem: 0 21G<22 156.461 437.412 584> 805 20G<120.552 280.236>
LayerCount: 2
Fore
SplineSet
584 0 m 1
 446 0 l 1
 300 340 l 1
 314 455 l 1
 442 550 l 1
 241 707 l 1
 154 0 l 1
 22 0 l 1
 123 825 l 1
 255 825 l 1
 602 550 l 1
 405 413 l 1
 584 0 l 1
EndSplineSet
EndChar

StartChar: s
Encoding: 115 115 60
Width: 181
Flags: W
HStem: 865 20G<128.518 263>
VStem: 78 185
LayerCount: 2
Fore
SplineSet
78 458 m 1
 131 885 l 1
 263 885 l 1
 210 458 l 1
 78 458 l 1
EndSplineSet
EndChar

StartChar: t
Encoding: 116 116 61
Width: 370
Flags: W
HStem: 0 21G<212 344.458>
LayerCount: 2
Fore
SplineSet
342 0 m 1
 212 0 l 1
 300 715 l 1
 125 641 l 1
 107 740 l 1
 453 903 l 1
 342 0 l 1
EndSplineSet
EndChar

StartChar: u
Encoding: 117 117 62
Width: 616
Flags: W
HStem: 0 21G<22 156.466 454.061 599> 840 20G<125.535 267.884>
LayerCount: 2
Fore
SplineSet
260 860 m 1
 599 0 l 1
 462 0 l 1
 227 592 l 1
 154 0 l 1
 22 0 l 1
 128 860 l 1
 260 860 l 1
EndSplineSet
EndChar

StartChar: v
Encoding: 118 118 63
Width: 525
Flags: W
HStem: 0 21G<22 156.415> 781 79<303.073 363.888>
VStem: 296 74<786.284 853.427>
LayerCount: 2
Fore
SplineSet
22 1 m 1
 128 861 l 1
 260 861 l 1
 233 641 l 1
 463 861 l 1
 611 861 l 1
 211 463 l 1
 201 384 l 1
 432 598 l 1
 580 598 l 1
 179 207 l 1
 154 0 l 1
 22 1 l 1
296 820 m 0
 299 841 318 860 339 860 c 0
 360 860 373 841 370 820 c 0
 367 799 350 781 329 781 c 0
 308 781 293 799 296 820 c 0
EndSplineSet
EndChar

StartChar: w
Encoding: 119 119 64
Width: 521
Flags: W
HStem: 0 21G<22 156.442> 807 20G<123 280.291>
LayerCount: 2
Fore
SplineSet
206 427 m 1
 427 566 l 1
 240 703 l 1
 206 427 l 1
256 827 m 1
 573 566 l 1
 191 303 l 1
 154 0 l 1
 22 0 l 1
 123 825 l 1
 256 827 l 1
EndSplineSet
EndChar

StartChar: x
Encoding: 120 120 65
Width: 766
Flags: W
HStem: 0 21G<492 630.407> 108 94<389 505 653 757> 612 94<105 215 365 473> 776 20G<235.556 376>
LayerCount: 2
Fore
SplineSet
238 796 m 1
 376 796 l 1
 365 706 l 1
 485 706 l 1
 473 612 l 1
 353 612 l 1
 328 407 l 1
 432 449 530 496 631 542 c 1
 694 541 l 1
 653 202 l 1
 769 202 l 1
 757 108 l 1
 641 108 l 1
 628 0 l 1
 492 0 l 1
 505 108 l 1
 377 108 l 1
 389 202 l 1
 517 202 l 1
 540 390 l 1
 436 348 336 299 235 253 c 1
 171 254 l 1
 215 612 l 1
 93 612 l 1
 105 706 l 1
 227 706 l 1
 238 796 l 1
EndSplineSet
EndChar

StartChar: y
Encoding: 121 121 66
Width: 616
Flags: W
HStem: 0 21G<22 156.466 454.061 599> 182 107<233.066 306.309> 840 20G<125.535 267.884>
VStem: 219 103<197.21 275.137>
LayerCount: 2
Fore
SplineSet
260 860 m 1
 599 0 l 1
 462 0 l 1
 227 592 l 1
 154 0 l 1
 22 0 l 1
 128 860 l 1
 260 860 l 1
219 236 m 0
 223 265 248 289 276 289 c 0
 304 289 326 265 322 236 c 0
 318 207 291 182 263 182 c 0
 235 182 215 207 219 236 c 0
EndSplineSet
EndChar

StartChar: z
Encoding: 122 122 67
Width: 560
Flags: W
HStem: 865 20G<319.518 452>
LayerCount: 2
Fore
SplineSet
322 885 m 1
 452 885 l 1
 399 458 l 1
 574 532 l 1
 592 433 l 1
 311 270 l 1
 70 433 l 1
 112 532 l 1
 269 458 l 1
 322 885 l 1
EndSplineSet
EndChar

StartChar: Adieresis
Encoding: 196 196 68
Width: 627
Flags: W
HStem: 0 21G<16 159.5 462 601.465> 12 106<297.066 371.212> 840 20G<565.542 705>
VStem: 283 103<26.7333 104.137>
LayerCount: 2
Fore
SplineSet
503 332 m 1xb0
 384 290 195 150 124 0 c 1
 16 0 l 1
 82 181 338 382 517 445 c 1
 568 860 l 1
 705 860 l 1
 599 0 l 1
 462 0 l 1
 503 332 l 1xb0
386 65 m 0
 382 36 355 12 327 12 c 0
 299 12 279 36 283 65 c 0
 287 94 312 118 340 118 c 0x70
 368 118 390 94 386 65 c 0
EndSplineSet
EndChar

StartChar: Aring
Encoding: 197 197 69
Width: 570
Flags: W
HStem: 0 21G<223 362.448> 840 20G<326.508 466>
LayerCount: 2
Fore
SplineSet
592 351 m 1
 527 257 l 1
 401 335 l 1
 360 0 l 1
 223 0 l 1
 265 345 l 1
 103 257 l 1
 60 351 l 1
 229 442 l 1
 82 533 l 1
 148 627 l 1
 289 539 l 1
 329 860 l 1
 466 860 l 1
 427 549 l 1
 572 627 l 1
 614 533 l 1
 445 442 l 1
 592 351 l 1
EndSplineSet
EndChar

StartChar: AE
Encoding: 198 198 70
Width: 563
Flags: W
HStem: -1 21G<243.841 348>
LayerCount: 2
Fore
SplineSet
348 0 m 1
 284 -1 l 1
 31 125 l 1
 73 224 l 1
 231 152 l 1
 323 903 l 1
 387 904 l 1
 640 778 l 1
 598 679 l 1
 440 751 l 1
 348 0 l 1
EndSplineSet
EndChar

StartChar: Eth
Encoding: 208 208 71
Width: 429
Flags: W
HStem: 0 21G<22 156.521> 397 65<237.85 293.454> 840 20G<125.535 260>
VStem: 235 62<400.106 459.069>
LayerCount: 2
Fore
SplineSet
245 741 m 1
 464 430 l 1
 169 119 l 1
 154 0 l 1
 22 0 l 1
 128 860 l 1
 260 860 l 1
 245 741 l 1
226 588 m 1
 187 271 l 1
 343 430 l 1
 226 588 l 1
235 430 m 0
 237 447 253 462 270 462 c 0
 287 462 299 447 297 430 c 0
 295 413 279 397 262 397 c 0
 245 397 233 413 235 430 c 0
EndSplineSet
EndChar

StartChar: Odieresis
Encoding: 214 214 72
Width: 885
Flags: W
HStem: 0 21G<16 167.5 372 512.442 718 866> 841 20G<475.519 616>
VStem: 718 148<0 109.889>
LayerCount: 2
Fore
SplineSet
429 466 m 1
 478 861 l 1
 616 861 l 1
 567 466 l 1
 753 353 859 144 866 0 c 1
 718 0 l 1
 735 95 639 247 547 303 c 1
 510 0 l 1
 372 0 l 1
 409 303 l 1
 303 247 171 96 164 1 c 1
 16 1 l 1
 59 145 215 353 429 466 c 1
EndSplineSet
EndChar

StartChar: Oslash
Encoding: 216 216 73
Width: 568
Flags: W
HStem: 0 21G<212 351.457> 840 20G<315.546 455>
LayerCount: 2
Fore
SplineSet
212 0 m 1
 243 255 l 1
 82 213 l 1
 68 313 l 1
 256 362 l 1
 265 429 l 1
 90 384 l 1
 76 483 l 1
 278 534 l 1
 318 860 l 1
 455 860 l 1
 419 570 l 1
 595 615 l 1
 598 514 l 1
 406 465 l 1
 398 400 l 1
 566 444 l 1
 591 347 l 1
 385 293 l 1
 349 0 l 1
 212 0 l 1
EndSplineSet
EndChar

StartChar: Thorn
Encoding: 222 222 74
Width: 429
Flags: W
HStem: 0 21G<22 156.521> 840 20G<125.535 260>
LayerCount: 2
Fore
SplineSet
245 741 m 1
 464 430 l 1
 169 119 l 1
 154 0 l 1
 22 0 l 1
 128 860 l 1
 260 860 l 1
 245 741 l 1
226 588 m 1
 187 272 l 1
 343 430 l 1
 226 588 l 1
EndSplineSet
EndChar

StartChar: adieresis
Encoding: 228 228 75
Width: 627
Flags: W
HStem: 0 21G<16 159.5 462 601.465> 12 106<297.066 371.212> 840 20G<565.542 705>
VStem: 283 103<26.7333 104.137>
LayerCount: 2
Fore
SplineSet
503 332 m 1xb0
 384 290 195 150 124 0 c 1
 16 0 l 1
 82 181 338 382 517 445 c 1
 568 860 l 1
 705 860 l 1
 599 0 l 1
 462 0 l 1
 503 332 l 1xb0
386 65 m 0
 382 36 355 12 327 12 c 0
 299 12 279 36 283 65 c 0
 287 94 312 118 340 118 c 0x70
 368 118 390 94 386 65 c 0
EndSplineSet
EndChar

StartChar: aring
Encoding: 229 229 76
Width: 570
Flags: W
HStem: 0 21G<223 362.448> 840 20G<326.508 466>
LayerCount: 2
Fore
SplineSet
592 351 m 1
 527 257 l 1
 401 335 l 1
 360 0 l 1
 223 0 l 1
 265 345 l 1
 103 257 l 1
 60 351 l 1
 229 442 l 1
 82 533 l 1
 148 627 l 1
 289 539 l 1
 329 860 l 1
 466 860 l 1
 427 549 l 1
 572 627 l 1
 614 533 l 1
 445 442 l 1
 592 351 l 1
EndSplineSet
EndChar

StartChar: ae
Encoding: 230 230 77
Width: 563
Flags: W
HStem: -1 21G<243.841 348>
LayerCount: 2
Fore
SplineSet
348 0 m 1
 284 -1 l 1
 31 125 l 1
 73 224 l 1
 231 152 l 1
 323 903 l 1
 387 904 l 1
 640 778 l 1
 598 679 l 1
 440 751 l 1
 348 0 l 1
EndSplineSet
EndChar

StartChar: eth
Encoding: 240 240 78
Width: 429
Flags: W
HStem: 0 21G<22 156.521> 397 65<237.85 293.454> 840 20G<125.535 260>
VStem: 235 62<400.106 459.069>
LayerCount: 2
Fore
SplineSet
245 741 m 1
 464 430 l 1
 169 119 l 1
 154 0 l 1
 22 0 l 1
 128 860 l 1
 260 860 l 1
 245 741 l 1
226 588 m 1
 187 271 l 1
 343 430 l 1
 226 588 l 1
235 430 m 0
 237 447 253 462 270 462 c 0
 287 462 299 447 297 430 c 0
 295 413 279 397 262 397 c 0
 245 397 233 413 235 430 c 0
EndSplineSet
EndChar

StartChar: odieresis
Encoding: 246 246 79
Width: 885
Flags: W
HStem: 0 21G<16 167.5 372 512.442 718 866> 841 20G<475.519 616>
VStem: 718 148<0 109.889>
LayerCount: 2
Fore
SplineSet
429 466 m 1
 478 861 l 1
 616 861 l 1
 567 466 l 1
 753 353 859 144 866 0 c 1
 718 0 l 1
 735 95 639 247 547 303 c 1
 510 0 l 1
 372 0 l 1
 409 303 l 1
 303 247 171 96 164 1 c 1
 16 1 l 1
 59 145 215 353 429 466 c 1
EndSplineSet
EndChar

StartChar: oslash
Encoding: 248 248 80
Width: 568
Flags: W
HStem: 0 21G<212 351.457> 840 20G<315.546 455>
LayerCount: 2
Fore
SplineSet
212 0 m 1
 243 255 l 1
 82 213 l 1
 68 313 l 1
 256 362 l 1
 265 429 l 1
 90 384 l 1
 76 483 l 1
 278 534 l 1
 318 860 l 1
 455 860 l 1
 419 570 l 1
 595 615 l 1
 598 514 l 1
 406 465 l 1
 398 400 l 1
 566 444 l 1
 591 347 l 1
 385 293 l 1
 349 0 l 1
 212 0 l 1
EndSplineSet
EndChar

StartChar: thorn
Encoding: 254 254 81
Width: 429
Flags: W
HStem: 0 21G<22 156.521> 840 20G<125.535 260>
LayerCount: 2
Fore
SplineSet
245 741 m 1
 464 430 l 1
 169 119 l 1
 154 0 l 1
 22 0 l 1
 128 860 l 1
 260 860 l 1
 245 741 l 1
226 588 m 1
 187 272 l 1
 343 430 l 1
 226 588 l 1
EndSplineSet
EndChar

StartChar: Eng
Encoding: 330 330 82
Width: 542
Flags: W
LayerCount: 2
Fore
SplineSet
211 430 m 1
 307 301 l 1
 433 430 l 1
 339 559 l 1
 211 430 l 1
575 430 m 1
 284 114 l 1
 69 430 l 1
 362 746 l 1
 575 430 l 1
EndSplineSet
EndChar

StartChar: eng
Encoding: 331 331 83
Width: 662
Flags: W
HStem: 0 21G<59 193.432> 840 20G<162.5 297 607.5 749>
LayerCount: 2
Fore
SplineSet
261 574 m 1
 273 566 284 555 291 542 c 1
 410 595 575 724 640 860 c 1
 749 860 l 1
 689 696 468 516 295 437 c 1
 284 409 261 385 236 370 c 1
 191 0 l 1
 59 0 l 1
 106 380 l 1
 84 402 70 435 75 472 c 0
 80 509 100 542 128 564 c 1
 165 860 l 1
 297 860 l 1
 261 574 l 1
EndSplineSet
EndChar

StartChar: OE
Encoding: 338 338 84
Width: 568
Flags: W
HStem: 0 21G<212 351.457> 840 20G<315.546 455>
LayerCount: 2
Fore
SplineSet
212 0 m 1
 243 255 l 1
 82 213 l 1
 68 313 l 1
 256 362 l 1
 265 429 l 1
 90 384 l 1
 76 483 l 1
 278 534 l 1
 318 860 l 1
 455 860 l 1
 419 570 l 1
 595 615 l 1
 598 514 l 1
 406 465 l 1
 398 400 l 1
 566 444 l 1
 591 347 l 1
 385 293 l 1
 349 0 l 1
 212 0 l 1
EndSplineSet
EndChar

StartChar: oe
Encoding: 339 339 85
Width: 568
Flags: W
HStem: 0 21G<212 351.457> 840 20G<315.546 455>
LayerCount: 2
Fore
SplineSet
212 0 m 1
 243 255 l 1
 82 213 l 1
 68 313 l 1
 256 362 l 1
 265 429 l 1
 90 384 l 1
 76 483 l 1
 278 534 l 1
 318 860 l 1
 455 860 l 1
 419 570 l 1
 595 615 l 1
 598 514 l 1
 406 465 l 1
 398 400 l 1
 566 444 l 1
 591 347 l 1
 385 293 l 1
 349 0 l 1
 212 0 l 1
EndSplineSet
EndChar

StartChar: germandbls
Encoding: 223 223 86
Width: 435
Flags: W
HStem: 865 20G<128.518 263 382.518 517>
LayerCount: 2
Fore
SplineSet
78 458 m 1
 131 885 l 1
 263 885 l 1
 210 458 l 1
 78 458 l 1
332 458 m 1
 385 885 l 1
 517 885 l 1
 464 458 l 1
 332 458 l 1
EndSplineSet
EndChar
